<svg width="290" height="290" viewBox="0 0 290 290" fill="none" xmlns="http://www.w3.org/2000/svg">
<mask id="path-1-inside-1_1008_64" fill="white">
<path d="M87.3227 132.6C85.3035 125.609 81.5394 119.016 76.0305 113.508C58.6374 96.1145 30.4377 96.1144 13.0446 113.508C-4.34852 130.901 -4.34852 159.1 13.0446 176.493C18.5535 182.002 25.1467 185.767 32.1371 187.786C35.7727 188.944 39.956 189.845 44.5191 190.827C59.6139 194.078 78.8641 198.223 96.186 215.545C96.186 215.545 98.7054 209.876 104.059 204.522C109.413 199.168 115.082 196.649 115.082 196.649C97.7599 179.327 93.6148 160.077 90.3644 144.982C89.3819 140.419 88.4811 136.236 87.3227 132.6Z"/>
<path d="M202.677 157.401C204.697 164.391 208.461 170.985 213.97 176.493C231.363 193.887 259.562 193.887 276.956 176.493C294.349 159.1 294.349 130.901 276.956 113.508C271.447 107.999 264.853 104.234 257.863 102.215C254.227 101.057 250.044 100.156 245.481 99.1736C230.386 95.9232 211.136 91.7781 193.814 74.4563C193.814 74.4563 191.295 80.125 185.941 85.4788C180.587 90.8326 174.918 93.352 174.918 93.352C192.24 110.674 196.385 129.924 199.636 145.019C200.618 149.582 201.519 153.765 202.677 157.401Z"/>
<path d="M102.215 32.1372C104.234 25.1468 107.998 18.5537 113.507 13.0448C130.9 -4.34827 159.1 -4.34827 176.493 13.0448C193.886 30.4379 193.886 58.6377 176.493 76.0308C170.984 81.5397 164.391 85.3038 157.401 87.323C153.765 88.4813 149.582 89.3821 145.019 90.3647C129.924 93.615 110.674 97.7602 93.3518 115.082C93.3518 115.082 90.8324 109.413 85.4786 104.059C80.1248 98.7057 74.456 96.1862 74.456 96.1862C91.7779 78.8644 95.923 59.6142 99.1734 44.5193C100.156 39.9562 101.057 35.7728 102.215 32.1372Z"/>
<path d="M187.785 257.864C185.766 264.854 182.002 271.447 176.493 276.956C159.1 294.349 130.9 294.349 113.507 276.956C96.1138 259.563 96.1138 231.363 113.507 213.97C119.016 208.461 125.609 204.697 132.599 202.678C136.235 201.52 140.418 200.619 144.981 199.636C160.076 196.386 179.326 192.241 196.648 174.919C196.648 174.919 199.168 180.588 204.522 185.941C209.875 191.295 215.544 193.815 215.544 193.815C198.222 211.137 194.077 230.387 190.827 245.482C189.844 250.045 188.943 254.228 187.785 257.864Z"/>
</mask>
<path d="M87.3227 132.6C85.3035 125.609 81.5394 119.016 76.0305 113.508C58.6374 96.1145 30.4377 96.1144 13.0446 113.508C-4.34852 130.901 -4.34852 159.1 13.0446 176.493C18.5535 182.002 25.1467 185.767 32.1371 187.786C35.7727 188.944 39.956 189.845 44.5191 190.827C59.6139 194.078 78.8641 198.223 96.186 215.545C96.186 215.545 98.7054 209.876 104.059 204.522C109.413 199.168 115.082 196.649 115.082 196.649C97.7599 179.327 93.6148 160.077 90.3644 144.982C89.3819 140.419 88.4811 136.236 87.3227 132.6Z" fill="url(#paint0_linear_1008_64)"/>
<path d="M202.677 157.401C204.697 164.391 208.461 170.985 213.97 176.493C231.363 193.887 259.562 193.887 276.956 176.493C294.349 159.1 294.349 130.901 276.956 113.508C271.447 107.999 264.853 104.234 257.863 102.215C254.227 101.057 250.044 100.156 245.481 99.1736C230.386 95.9232 211.136 91.7781 193.814 74.4563C193.814 74.4563 191.295 80.125 185.941 85.4788C180.587 90.8326 174.918 93.352 174.918 93.352C192.24 110.674 196.385 129.924 199.636 145.019C200.618 149.582 201.519 153.765 202.677 157.401Z" fill="url(#paint1_linear_1008_64)"/>
<path d="M102.215 32.1372C104.234 25.1468 107.998 18.5537 113.507 13.0448C130.9 -4.34827 159.1 -4.34827 176.493 13.0448C193.886 30.4379 193.886 58.6377 176.493 76.0308C170.984 81.5397 164.391 85.3038 157.401 87.323C153.765 88.4813 149.582 89.3821 145.019 90.3647C129.924 93.615 110.674 97.7602 93.3518 115.082C93.3518 115.082 90.8324 109.413 85.4786 104.059C80.1248 98.7057 74.456 96.1862 74.456 96.1862C91.7779 78.8644 95.923 59.6142 99.1734 44.5193C100.156 39.9562 101.057 35.7728 102.215 32.1372Z" fill="url(#paint2_linear_1008_64)"/>
<path d="M187.785 257.864C185.766 264.854 182.002 271.447 176.493 276.956C159.1 294.349 130.9 294.349 113.507 276.956C96.1138 259.563 96.1138 231.363 113.507 213.97C119.016 208.461 125.609 204.697 132.599 202.678C136.235 201.52 140.418 200.619 144.981 199.636C160.076 196.386 179.326 192.241 196.648 174.919C196.648 174.919 199.168 180.588 204.522 185.941C209.875 191.295 215.544 193.815 215.544 193.815C198.222 211.137 194.077 230.387 190.827 245.482C189.844 250.045 188.943 254.228 187.785 257.864Z" fill="url(#paint3_linear_1008_64)"/>
<path d="M87.3227 132.6L85.1457 133.229C85.1514 133.249 85.1574 133.268 85.1636 133.288L87.3227 132.6ZM32.1371 187.786L32.825 185.627C32.8054 185.62 32.7857 185.614 32.766 185.609L32.1371 187.786ZM44.5191 190.827L44.9961 188.612L44.5191 190.827ZM96.186 215.545L94.5837 217.147C95.1116 217.675 95.8656 217.909 96.5997 217.773C97.3337 217.636 97.9535 217.147 98.2567 216.465L96.186 215.545ZM115.082 196.649L116.002 198.72C116.684 198.417 117.173 197.797 117.31 197.063C117.446 196.329 117.212 195.575 116.684 195.047L115.082 196.649ZM90.3644 144.982L92.5797 144.505L90.3644 144.982ZM202.677 157.401L204.854 156.772C204.849 156.752 204.843 156.733 204.836 156.713L202.677 157.401ZM257.863 102.215L257.175 104.374C257.195 104.381 257.214 104.387 257.234 104.392L257.863 102.215ZM245.481 99.1736L245.004 101.389L245.481 99.1736ZM193.814 74.4563L195.416 72.8539C194.889 72.326 194.134 72.092 193.4 72.2283C192.666 72.3646 192.047 72.8537 191.743 73.5359L193.814 74.4563ZM174.918 93.352L173.998 91.2813C173.316 91.5845 172.827 92.2043 172.69 92.9383C172.554 93.6724 172.788 94.4265 173.316 94.9544L174.918 93.352ZM199.636 145.019L197.42 145.496L199.636 145.019ZM102.215 32.1372L104.374 32.8251C104.38 32.8055 104.386 32.7858 104.392 32.766L102.215 32.1372ZM157.401 87.323L156.772 85.146C156.752 85.1517 156.732 85.1577 156.713 85.1639L157.401 87.323ZM145.019 90.3647L144.542 88.1494L145.019 90.3647ZM93.3518 115.082L91.281 116.002C91.5843 116.685 92.2041 117.174 92.9381 117.31C93.6721 117.446 94.4262 117.212 94.9541 116.684L93.3518 115.082ZM74.456 96.1862L72.8537 94.5839C72.3258 95.1118 72.0918 95.8659 72.228 96.5999C72.3643 97.334 72.8534 97.9538 73.5357 98.257L74.456 96.1862ZM99.1734 44.5193L96.9581 44.0423L99.1734 44.5193ZM187.785 257.864L185.626 257.176C185.62 257.195 185.614 257.215 185.608 257.235L187.785 257.864ZM132.599 202.678L133.228 204.855C133.248 204.849 133.268 204.843 133.287 204.837L132.599 202.678ZM144.981 199.636L145.458 201.852V201.852L144.981 199.636ZM196.648 174.919L198.719 173.999C198.416 173.316 197.796 172.827 197.062 172.691C196.328 172.555 195.574 172.789 195.046 173.317L196.648 174.919ZM215.544 193.815L217.146 195.417C217.674 194.889 217.908 194.135 217.772 193.401C217.636 192.667 217.147 192.047 216.464 191.744L215.544 193.815ZM190.827 245.482L193.042 245.959L190.827 245.482ZM74.4282 115.11C79.6596 120.341 83.23 126.597 85.1457 133.229L89.4998 131.971C87.377 124.622 83.4193 117.692 77.6329 111.905L74.4282 115.11ZM14.6469 115.11C31.1551 98.6017 57.92 98.6017 74.4282 115.11L77.6329 111.905C59.3548 93.6272 29.7203 93.6272 11.4422 111.905L14.6469 115.11ZM14.6469 174.891C-1.86122 158.383 -1.86122 131.618 14.6469 115.11L11.4422 111.905C-6.83581 130.183 -6.83581 159.818 11.4422 178.096L14.6469 174.891ZM32.766 185.609C26.134 183.693 19.8783 180.123 14.6469 174.891L11.4422 178.096C17.2287 183.882 24.1593 187.84 31.5083 189.963L32.766 185.609ZM44.9961 188.612C40.4038 187.623 36.3357 186.745 32.825 185.627L31.4492 189.945C35.2097 191.143 39.5083 192.066 44.042 193.043L44.9961 188.612ZM97.7883 213.942C79.9562 196.11 60.1066 191.866 44.9961 188.612L44.042 193.043C59.1212 196.29 77.772 200.335 94.5837 217.147L97.7883 213.942ZM102.457 202.92C99.6279 205.749 97.5562 208.651 96.1913 210.843C95.5072 211.942 94.9963 212.869 94.6528 213.53C94.481 213.86 94.3508 214.125 94.2615 214.311C94.2168 214.404 94.1823 214.478 94.158 214.53C94.1458 214.557 94.1362 214.578 94.1291 214.594C94.1255 214.601 94.1226 214.608 94.1203 214.613C94.1191 214.616 94.1181 214.618 94.1173 214.62C94.1169 214.621 94.1165 214.622 94.1162 214.622C94.116 214.623 94.1158 214.623 94.1157 214.623C94.1155 214.624 94.1153 214.624 96.186 215.545C98.2567 216.465 98.2566 216.465 98.2564 216.466C98.2563 216.466 98.2562 216.466 98.2561 216.467C98.2559 216.467 98.2557 216.467 98.2556 216.468C98.2554 216.468 98.2553 216.468 98.2554 216.468C98.2556 216.468 98.2563 216.466 98.2577 216.463C98.2604 216.457 98.2656 216.446 98.2732 216.429C98.2884 216.396 98.3133 216.343 98.348 216.271C98.4174 216.126 98.5258 215.905 98.6738 215.621C98.97 215.051 99.4236 214.227 100.039 213.239C101.272 211.258 103.137 208.649 105.662 206.125L102.457 202.92ZM115.082 196.649C114.161 194.578 114.161 194.578 114.16 194.579C114.16 194.579 114.16 194.579 114.159 194.579C114.159 194.579 114.158 194.58 114.157 194.58C114.155 194.581 114.153 194.582 114.15 194.583C114.145 194.586 114.139 194.588 114.131 194.592C114.115 194.599 114.094 194.609 114.067 194.621C114.015 194.645 113.941 194.68 113.848 194.724C113.662 194.814 113.397 194.944 113.067 195.116C112.406 195.459 111.479 195.97 110.38 196.654C108.188 198.019 105.286 200.091 102.457 202.92L105.662 206.125C108.186 203.6 110.795 201.735 112.776 200.502C113.764 199.887 114.588 199.433 115.158 199.137C115.442 198.989 115.663 198.88 115.808 198.811C115.88 198.776 115.933 198.751 115.966 198.736C115.983 198.729 115.994 198.723 116 198.721C116.003 198.719 116.005 198.719 116.005 198.718C116.005 198.718 116.005 198.718 116.005 198.719C116.004 198.719 116.004 198.719 116.004 198.719C116.003 198.719 116.003 198.719 116.003 198.719C116.003 198.72 116.002 198.72 115.082 196.649ZM88.1492 145.459C91.4029 160.57 95.6473 180.419 113.479 198.251L116.684 195.047C99.8725 178.235 95.8267 159.584 92.5797 144.505L88.1492 145.459ZM85.1636 133.288C86.2822 136.799 87.1603 140.867 88.1492 145.459L92.5797 144.505C91.6035 139.971 90.68 135.672 89.4819 131.912L85.1636 133.288ZM215.572 174.891C210.341 169.66 206.77 163.404 204.854 156.772L200.5 158.03C202.623 165.379 206.581 172.309 212.367 178.096L215.572 174.891ZM275.353 174.891C258.845 191.399 232.08 191.399 215.572 174.891L212.367 178.096C230.645 196.374 260.28 196.374 278.558 178.096L275.353 174.891ZM275.353 115.11C291.861 131.618 291.861 158.383 275.353 174.891L278.558 178.096C296.836 159.818 296.836 130.183 278.558 111.905L275.353 115.11ZM257.234 104.392C263.866 106.308 270.122 109.878 275.353 115.11L278.558 111.905C272.771 106.119 265.841 102.161 258.492 100.038L257.234 104.392ZM245.004 101.389C249.596 102.378 253.664 103.256 257.175 104.374L258.551 100.056C254.79 98.858 250.492 97.9346 245.958 96.9583L245.004 101.389ZM192.212 76.0586C210.044 93.8907 229.893 98.1352 245.004 101.389L245.958 96.9583C230.879 93.7113 212.228 89.6656 195.416 72.8539L192.212 76.0586ZM187.543 87.0811C190.372 84.2521 192.444 81.3497 193.809 79.1576C194.493 78.059 195.004 77.1316 195.347 76.4711C195.519 76.1406 195.649 75.8764 195.739 75.6901C195.783 75.597 195.818 75.5233 195.842 75.4706C195.854 75.4442 195.864 75.4231 195.871 75.4074C195.875 75.3995 195.877 75.393 195.88 75.3878C195.881 75.3853 195.882 75.3831 195.883 75.3812C195.883 75.3802 195.884 75.3794 195.884 75.3786C195.884 75.3782 195.884 75.3777 195.884 75.3775C195.885 75.3771 195.885 75.3766 193.814 74.4563C191.743 73.5359 191.744 73.5355 191.744 73.5351C191.744 73.535 191.744 73.5346 191.744 73.5344C191.744 73.534 191.744 73.5336 191.744 73.5334C191.745 73.5329 191.745 73.5327 191.745 73.5329C191.745 73.5333 191.744 73.535 191.742 73.538C191.74 73.544 191.734 73.5554 191.727 73.5718C191.712 73.6048 191.687 73.6581 191.652 73.7304C191.583 73.8751 191.474 74.0956 191.326 74.3802C191.03 74.9499 190.577 75.7743 189.961 76.7621C188.728 78.7428 186.863 81.3517 184.338 83.8764L187.543 87.0811ZM174.918 93.352C175.839 95.4228 175.839 95.4226 175.84 95.4224C175.84 95.4223 175.84 95.422 175.841 95.4219C175.841 95.4215 175.842 95.4212 175.843 95.4207C175.845 95.4199 175.847 95.4189 175.85 95.4177C175.855 95.4154 175.862 95.4125 175.869 95.409C175.885 95.4018 175.906 95.3922 175.933 95.38C175.985 95.3557 176.059 95.3212 176.152 95.2766C176.338 95.1873 176.603 95.057 176.933 94.8852C177.594 94.5417 178.521 94.0308 179.62 93.3467C181.812 91.9818 184.714 89.9102 187.543 87.0811L184.338 83.8764C181.814 86.4012 179.205 88.2662 177.224 89.4994C176.236 90.1145 175.412 90.568 174.842 90.8642C174.558 91.0122 174.337 91.1207 174.192 91.1901C174.12 91.2247 174.067 91.2496 174.034 91.2648C174.017 91.2724 174.006 91.2776 174 91.2803C173.997 91.2817 173.995 91.2825 173.995 91.2826C173.995 91.2827 173.995 91.2826 173.995 91.2824C173.996 91.2823 173.996 91.2821 173.996 91.282C173.997 91.2819 173.997 91.2817 173.997 91.2816C173.998 91.2815 173.998 91.2813 174.918 93.352ZM201.851 144.542C198.597 129.431 194.353 109.582 176.521 91.7497L173.316 94.9544C190.128 111.766 194.173 130.417 197.42 145.496L201.851 144.542ZM204.836 156.713C203.718 153.202 202.84 149.134 201.851 144.542L197.42 145.496C198.397 150.03 199.32 154.329 200.518 158.089L204.836 156.713ZM111.905 11.4425C106.118 17.2289 102.161 24.1594 100.038 31.5083L104.392 32.766C106.308 26.1341 109.878 19.8785 115.11 14.6472L111.905 11.4425ZM178.096 11.4425C159.818 -6.83557 130.183 -6.83556 111.905 11.4425L115.11 14.6472C131.618 -1.86098 158.383 -1.86098 174.891 14.6472L178.096 11.4425ZM178.096 77.6331C196.374 59.3551 196.374 29.7205 178.096 11.4425L174.891 14.6472C191.399 31.1553 191.399 57.9203 174.891 74.4284L178.096 77.6331ZM158.03 89.5001C165.378 87.3773 172.309 83.4196 178.096 77.6331L174.891 74.4284C169.659 79.6598 163.404 83.2303 156.772 85.146L158.03 89.5001ZM145.496 92.58C150.03 91.6037 154.328 90.6803 158.089 89.4822L156.713 85.1639C153.202 86.2824 149.134 87.1605 144.542 88.1494L145.496 92.58ZM94.9541 116.684C111.766 99.8727 130.417 95.8269 145.496 92.58L144.542 88.1494C129.431 91.4031 109.582 95.6476 91.7495 113.48L94.9541 116.684ZM83.8762 105.662C86.401 108.187 88.2659 110.795 89.4992 112.776C90.1142 113.764 90.5678 114.588 90.864 115.158C91.012 115.443 91.1204 115.663 91.1898 115.808C91.2245 115.88 91.2494 115.934 91.2646 115.966C91.2722 115.983 91.2774 115.994 91.2801 116C91.2815 116.003 91.2822 116.005 91.2824 116.005C91.2825 116.006 91.2824 116.005 91.2822 116.005C91.2821 116.005 91.2819 116.004 91.2817 116.004C91.2816 116.004 91.2815 116.003 91.2814 116.003C91.2812 116.003 91.281 116.002 93.3518 115.082C95.4225 114.162 95.4223 114.161 95.4221 114.161C95.422 114.161 95.4218 114.16 95.4216 114.16C95.4213 114.159 95.4209 114.158 95.4205 114.157C95.4197 114.155 95.4187 114.153 95.4175 114.15C95.4152 114.145 95.4123 114.139 95.4087 114.131C95.4016 114.115 95.392 114.094 95.3798 114.068C95.3555 114.015 95.321 113.941 95.2763 113.848C95.187 113.662 95.0568 113.398 94.885 113.067C94.5415 112.407 94.0306 111.479 93.3465 110.381C91.9816 108.189 89.9099 105.286 87.0809 102.457L83.8762 105.662ZM74.456 96.1862C73.5357 98.257 73.5353 98.2568 73.5349 98.2566C73.5348 98.2566 73.5344 98.2564 73.5342 98.2563C73.5338 98.2561 73.5334 98.256 73.5332 98.2559C73.5327 98.2557 73.5325 98.2556 73.5327 98.2557C73.533 98.2558 73.5347 98.2566 73.5378 98.2579C73.5438 98.2607 73.5552 98.2659 73.5716 98.2734C73.6045 98.2886 73.6579 98.3135 73.7302 98.3482C73.8749 98.4176 74.0953 98.526 74.38 98.674C74.9496 98.9703 75.7741 99.4238 76.7619 100.039C78.7426 101.272 81.3515 103.137 83.8762 105.662L87.0809 102.457C84.2519 99.6281 81.3495 97.5565 79.1574 96.1916C78.0587 95.5075 77.1314 94.9966 76.4709 94.6531C76.1404 94.4812 75.8761 94.351 75.6899 94.2617C75.5968 94.217 75.5231 94.1826 75.4704 94.1583C75.444 94.1461 75.4229 94.1365 75.4071 94.1293C75.3993 94.1258 75.3927 94.1228 75.3876 94.1205C75.385 94.1194 75.3828 94.1184 75.3809 94.1175C75.38 94.1171 75.3792 94.1168 75.3784 94.1164C75.378 94.1162 75.3775 94.116 75.3773 94.1159C75.3768 94.1157 75.3764 94.1155 74.456 96.1862ZM96.9581 44.0423C93.7111 59.1215 89.6653 77.7723 72.8537 94.5839L76.0584 97.7886C93.8905 79.9565 98.1349 60.1069 101.389 44.9963L96.9581 44.0423ZM100.056 31.4493C98.8578 35.2098 97.9343 39.5084 96.9581 44.0423L101.389 44.9963C102.378 40.4039 103.256 36.3358 104.374 32.8251L100.056 31.4493ZM178.095 278.559C183.882 272.772 187.839 265.842 189.962 258.493L185.608 257.235C183.692 263.867 180.122 270.122 174.89 275.354L178.095 278.559ZM111.905 278.559C130.183 296.837 159.817 296.837 178.095 278.559L174.89 275.354C158.382 291.862 131.617 291.862 115.109 275.354L111.905 278.559ZM111.905 212.368C93.6265 230.646 93.6265 260.28 111.905 278.559L115.109 275.354C98.6011 258.846 98.6011 232.081 115.109 215.573L111.905 212.368ZM131.971 200.501C124.622 202.624 117.691 206.581 111.905 212.368L115.109 215.573C120.341 210.341 126.596 206.771 133.228 204.855L131.971 200.501ZM144.504 197.421C139.971 198.397 135.672 199.321 131.912 200.519L133.287 204.837C136.798 203.719 140.866 202.84 145.458 201.852L144.504 197.421ZM195.046 173.317C178.234 190.128 159.584 194.174 144.504 197.421L145.458 201.852C160.569 198.598 180.419 194.353 198.251 176.521L195.046 173.317ZM206.124 184.339C203.599 181.814 201.734 179.206 200.501 177.225C199.886 176.237 199.432 175.413 199.136 174.843C198.988 174.558 198.88 174.338 198.81 174.193C198.776 174.121 198.751 174.067 198.735 174.035C198.728 174.018 198.723 174.007 198.72 174.001C198.719 173.998 198.718 173.996 198.718 173.996C198.718 173.995 198.718 173.996 198.718 173.996C198.718 173.996 198.718 173.997 198.718 173.997C198.718 173.997 198.719 173.998 198.719 173.998C198.719 173.998 198.719 173.999 196.648 174.919C194.578 175.839 194.578 175.84 194.578 175.84C194.578 175.84 194.578 175.841 194.578 175.841C194.579 175.842 194.579 175.843 194.58 175.844C194.58 175.846 194.581 175.848 194.583 175.851C194.585 175.856 194.588 175.862 194.591 175.87C194.598 175.886 194.608 175.907 194.62 175.933C194.645 175.986 194.679 176.06 194.724 176.153C194.813 176.339 194.943 176.603 195.115 176.934C195.459 177.594 195.97 178.522 196.654 179.62C198.018 181.812 200.09 184.715 202.919 187.544L206.124 184.339ZM215.544 193.815C216.464 191.744 216.465 191.744 216.465 191.744C216.465 191.744 216.466 191.745 216.466 191.745C216.466 191.745 216.467 191.745 216.467 191.745C216.467 191.745 216.468 191.745 216.467 191.745C216.467 191.745 216.465 191.744 216.462 191.743C216.456 191.74 216.445 191.735 216.428 191.728C216.396 191.712 216.342 191.687 216.27 191.653C216.125 191.583 215.905 191.475 215.62 191.327C215.05 191.031 214.226 190.577 213.238 189.962C211.258 188.729 208.649 186.864 206.124 184.339L202.919 187.544C205.748 190.373 208.651 192.445 210.843 193.809C211.941 194.493 212.869 195.004 213.529 195.348C213.86 195.52 214.124 195.65 214.31 195.739C214.403 195.784 214.477 195.818 214.53 195.843C214.556 195.855 214.577 195.865 214.593 195.872C214.601 195.875 214.607 195.878 214.612 195.88C214.615 195.882 214.617 195.883 214.619 195.883C214.62 195.884 214.621 195.884 214.622 195.885C214.622 195.885 214.623 195.885 214.623 195.885C214.623 195.885 214.624 195.885 215.544 193.815ZM193.042 245.959C196.289 230.879 200.335 212.229 217.146 195.417L213.942 192.212C196.11 210.045 191.865 229.894 188.611 245.005L193.042 245.959ZM189.944 258.552C191.142 254.791 192.066 250.493 193.042 245.959L188.611 245.005C187.623 249.597 186.744 253.665 185.626 257.176L189.944 258.552Z" fill="black" fill-opacity="0.1" mask="url(#path-1-inside-1_1008_64)"/>
<defs>
<linearGradient id="paint0_linear_1008_64" x1="130.011" y1="301.323" x2="123.042" y2="-30.5618" gradientUnits="userSpaceOnUse">
<stop stop-color="white"/>
<stop offset="1" stop-color="#E5E5E5"/>
</linearGradient>
<linearGradient id="paint1_linear_1008_64" x1="130.011" y1="301.323" x2="123.042" y2="-30.5618" gradientUnits="userSpaceOnUse">
<stop stop-color="white"/>
<stop offset="1" stop-color="#E5E5E5"/>
</linearGradient>
<linearGradient id="paint2_linear_1008_64" x1="130.011" y1="301.323" x2="123.042" y2="-30.5618" gradientUnits="userSpaceOnUse">
<stop stop-color="white"/>
<stop offset="1" stop-color="#E5E5E5"/>
</linearGradient>
<linearGradient id="paint3_linear_1008_64" x1="130.011" y1="301.323" x2="123.042" y2="-30.5618" gradientUnits="userSpaceOnUse">
<stop stop-color="white"/>
<stop offset="1" stop-color="#E5E5E5"/>
</linearGradient>
</defs>
</svg>
