<svg width="796" height="796" viewBox="0 0 796 796" fill="none" xmlns="http://www.w3.org/2000/svg">
<rect width="796" height="796" rx="200" fill="#23153C"/>
<rect x="0.991794" y="0.991794" width="794.016" height="794.016" rx="199.008" stroke="black" stroke-opacity="0.1" stroke-width="1.98359" stroke-linejoin="round"/>
<path d="M299.393 376.799C295.941 364.848 289.506 353.576 280.088 344.158C250.352 314.423 202.141 314.423 172.405 344.158C142.67 373.894 142.67 422.105 172.405 451.841C181.824 461.259 193.095 467.694 205.046 471.146C211.262 473.127 218.414 474.667 226.215 476.346C252.022 481.903 284.932 488.99 314.546 518.604C314.546 518.604 318.854 508.913 328.007 499.76C337.16 490.607 346.851 486.299 346.851 486.299C317.237 456.685 310.15 423.775 304.594 397.968C302.914 390.167 301.374 383.015 299.393 376.799Z" fill="white"/>
<path d="M496.607 419.2C500.059 431.151 506.494 442.423 515.912 451.841C545.648 481.577 593.859 481.577 623.595 451.841C653.331 422.105 653.331 373.894 623.595 344.158C614.177 334.74 602.905 328.305 590.954 324.853C584.738 322.872 577.586 321.332 569.785 319.653C543.979 314.096 511.068 307.009 481.454 277.395C481.454 277.395 477.147 287.087 467.994 296.24C458.841 305.393 449.149 309.7 449.149 309.7C478.763 339.314 485.85 372.224 491.407 398.031C493.086 405.832 494.627 412.984 496.607 419.2Z" fill="white"/>
<path d="M324.854 205.045C328.306 193.094 334.741 181.823 344.159 172.404C373.895 142.669 422.106 142.669 451.842 172.404C481.577 202.14 481.577 250.351 451.842 280.087C442.423 289.505 431.152 295.94 419.201 299.393C412.985 301.373 405.833 302.913 398.032 304.593C372.225 310.149 339.315 317.236 309.701 346.85C309.701 346.85 305.394 337.159 296.241 328.006C287.087 318.853 277.396 314.545 277.396 314.545C307.01 284.931 314.097 252.021 319.654 226.214C321.333 218.413 322.873 211.261 324.854 205.045Z" fill="white"/>
<path d="M471.147 590.954C467.694 602.905 461.259 614.176 451.841 623.595C422.105 653.33 373.894 653.33 344.158 623.595C314.423 593.859 314.423 545.648 344.158 515.912C353.577 506.494 364.849 500.059 376.8 496.606C383.015 494.626 390.167 493.086 397.968 491.406C423.775 485.85 456.685 478.763 486.299 449.149C486.299 449.149 490.607 458.84 499.76 467.993C508.913 477.146 518.604 481.454 518.604 481.454C488.99 511.068 481.904 543.978 476.347 569.785C474.667 577.586 473.127 584.738 471.147 590.954Z" fill="white"/>
<path d="M298.441 377.074C298.443 377.083 298.446 377.092 298.448 377.1C300.411 383.261 301.941 390.363 303.624 398.177L303.633 398.22C309.129 423.742 316.172 456.449 345.171 486.012C345.035 486.081 344.89 486.155 344.736 486.235C343.665 486.792 342.145 487.629 340.337 488.755C336.724 491.005 331.948 494.415 327.305 499.058C322.662 503.701 319.252 508.477 317.002 512.09C315.877 513.898 315.04 515.418 314.482 516.489C314.402 516.643 314.328 516.788 314.259 516.924C284.696 487.925 251.989 480.882 226.467 475.386L226.424 475.377C218.61 473.694 211.508 472.164 205.348 470.201C205.339 470.199 205.33 470.196 205.322 470.194C193.527 466.787 182.403 460.436 173.107 451.139C143.758 421.791 143.758 374.208 173.107 344.86C202.455 315.511 250.038 315.511 279.387 344.86C288.683 354.156 295.034 365.28 298.441 377.074ZM497.56 418.925C497.557 418.916 497.555 418.907 497.552 418.899C495.589 412.738 494.059 405.636 492.376 397.822L492.367 397.779C486.871 372.257 479.829 339.55 450.83 309.987C450.965 309.918 451.11 309.844 451.264 309.764C452.336 309.207 453.855 308.37 455.663 307.244C459.277 304.994 464.052 301.584 468.695 296.941C473.338 292.298 476.748 287.522 478.998 283.909C480.124 282.101 480.961 280.581 481.518 279.51C481.598 279.356 481.673 279.211 481.741 279.075C511.304 308.074 544.011 315.117 569.534 320.613L569.576 320.622C577.39 322.305 584.492 323.835 590.653 325.798C590.661 325.8 590.67 325.803 590.678 325.805C602.473 329.212 613.597 335.563 622.894 344.86C652.242 374.208 652.242 421.791 622.894 451.139C593.545 480.488 545.962 480.488 516.614 451.139C507.317 441.843 500.967 430.719 497.56 418.925ZM325.799 205.346C325.801 205.338 325.804 205.329 325.807 205.32C329.213 193.526 335.564 182.402 344.861 173.106C374.209 143.757 421.792 143.757 451.14 173.106C480.489 202.454 480.489 250.037 451.14 279.386C441.844 288.682 430.72 295.033 418.925 298.44C418.917 298.442 418.908 298.445 418.899 298.448C412.739 300.41 405.637 301.94 397.823 303.623L397.78 303.632C372.258 309.128 339.551 316.171 309.988 345.17C309.919 345.034 309.845 344.889 309.765 344.735C309.208 343.664 308.371 342.144 307.245 340.336C304.995 336.723 301.585 331.947 296.942 327.304C292.299 322.661 287.523 319.251 283.91 317.001C282.102 315.876 280.582 315.039 279.511 314.481C279.357 314.401 279.212 314.327 279.076 314.258C308.075 284.695 315.118 251.988 320.614 226.466L320.623 226.423C322.306 218.609 323.836 211.507 325.799 205.346ZM470.202 590.653C470.199 590.661 470.196 590.67 470.194 590.679C466.787 602.473 460.436 613.597 451.14 622.893C421.791 652.242 374.208 652.242 344.86 622.893C315.511 593.545 315.511 545.962 344.86 516.613C354.157 507.317 365.281 500.966 377.075 497.559C377.084 497.557 377.092 497.554 377.101 497.551C383.262 495.589 390.363 494.059 398.177 492.376L398.22 492.367C423.743 486.871 456.449 479.828 486.012 450.829C486.081 450.965 486.155 451.11 486.236 451.264C486.793 452.335 487.63 453.855 488.755 455.663C491.005 459.276 494.415 464.052 499.058 468.695C503.702 473.338 508.477 476.748 512.09 478.998C513.898 480.123 515.418 480.96 516.489 481.518C516.644 481.598 516.789 481.672 516.924 481.741C487.925 511.304 480.882 544.011 475.386 569.533L475.377 569.576C473.695 577.39 472.164 584.492 470.202 590.653Z" stroke="black" stroke-opacity="0.1" stroke-width="1.98359" stroke-linejoin="round"/>
</svg>
